<?xml version="1.0" encoding="utf-8"?>
<!-- Generator: Adobe Illustrator 21.0.0, SVG Export Plug-In . SVG Version: 6.00 Build 0)  -->
<!DOCTYPE svg PUBLIC "-//W3C//DTD SVG 1.1//EN" "http://www.w3.org/Graphics/SVG/1.1/DTD/svg11.dtd">
<svg version="1.1" id="Layer_1" xmlns="http://www.w3.org/2000/svg" xmlns:xlink="http://www.w3.org/1999/xlink" x="0px" y="0px"
	 viewBox="0 0 200 200" style="enable-background:new 0 0 200 200;" xml:space="preserve">
<style type="text/css">
	.st0{fill:#FFFFFF;}
	.st1{fill:#85AB70;}
	.st2{fill:#F7D54A;}
	.st3{fill:#86AEDD;}
	.st4{fill:#EE6A56;}
	.st5{opacity:0.149;}
	.st6{opacity:0.102;}
	.st7{opacity:0.851;}
	.st8{fill-rule:evenodd;clip-rule:evenodd;}
	.st9{fill-rule:evenodd;clip-rule:evenodd;fill:#FFFFFF;}
</style>
<g id="White_Base_29_">
	<g>
		<path class="st0" d="M144.3,66.1v22.7h22.7L144.3,66.1z M141.9,93.5c-1.3,0-2.4-1.1-2.4-2.4V62.8h-28.4c-2.6,0-4.7,2.1-4.7,4.7
			v82.7c0,2.6,2.1,4.7,4.7,4.7h54.4c0.7,0,1.3-0.1,1.8-0.4c1.7-0.7,2.9-2.4,2.9-4.4V93.5H141.9z M130.1,58.1v-9.5
			c0-2.6-2.1-4.7-4.7-4.7H71c-2.6,0-4.7,2.1-4.7,4.7v82.7c0,2.6,2.1,4.7,4.7,4.7h30.7V67.5c0-5.2,4.2-9.5,9.5-9.5H130.1z"/>
	</g>
</g>
<g id="Texture_1_29_" class="st6">
	<g>
		<path d="M162.2,84.1h-1.4v2.4h2.4V85L162.2,84.1z M153.7,77v-1.4l-1-1h-1.4V77H153.7z M158.5,81.7v-1.4l-1-1h-1.4v2.4H158.5z
			 M146.6,84.1v2.4h2.4v-2.4H146.6z M156.1,79.3V78l-1-1h-1.4v2.4H156.1z M164.6,86.4h-1.4v2.4h2.4v-1.4L164.6,86.4z M151.4,84.1
			v2.4h2.4v-2.4H151.4z M151.4,74.6v-1.4l-1-1H149v2.4H151.4z M149,79.3h-2.4v2.4h2.4V79.3z M156.1,84.1v2.4h2.4v-2.4H156.1z
			 M149,74.6h-2.4V77h2.4V74.6z M145.7,67.5h-1.4v2.4h2.4v-1.4L145.7,67.5z M153.7,81.7v-2.4h-2.4v2.4H153.7z M144.3,81.7v2.4h2.4
			v-2.4H144.3z M144.3,77v2.4h2.4V77H144.3z M149,88.8h2.4v-2.4H149V88.8z M149,81.7v2.4h2.4v-2.4H149z M158.5,88.8h2.4v-2.4h-2.4
			V88.8z M153.7,88.8h2.4v-2.4h-2.4V88.8z M151.4,77H149v2.4h2.4V77z M160.8,84.1v-1.4l-1-1h-1.4v2.4H160.8z M153.7,81.7v2.4h2.4
			v-2.4H153.7z M149,70.9l-1-1h-1.4v2.4h2.4V70.9z M144.3,88.8h2.4v-2.4h-2.4V88.8z M144.3,72.2v2.4h2.4v-2.4H144.3z M99.4,60.4h2.4
			v-2.4h-2.4V60.4z M99.4,55.7H97v2.4h2.4V55.7z M99.4,65.2h2.4v-2.4h-2.4V65.2z M99.4,60.4H97v2.4h2.4V60.4z M94.6,58.1v2.4H97
			v-2.4H94.6z M101.7,69.9v-2.4h-2.4v2.4H101.7z M97,67.5h2.4v-2.4H97V67.5z M94.6,62.8v2.4H97v-2.4H94.6z M101.7,74.6v-2.4h-2.4
			v2.4H101.7z M97,72.2h2.4v-2.4H97V72.2z M94.6,67.5v2.4H97v-2.4H94.6z M101.7,79.3V77h-2.4v2.4H101.7z M97,77h2.4v-2.4H97V77z
			 M94.6,72.2v2.4H97v-2.4H94.6z M101.7,84.1v-2.4h-2.4v2.4H101.7z M97,81.7h2.4v-2.4H97V81.7z M94.6,77v2.4H97V77H94.6z
			 M101.7,88.8v-2.4h-2.4v2.4H101.7z M97,86.4h2.4v-2.4H97V86.4z M94.6,81.7v2.4H97v-2.4H94.6z M101.7,93.5v-2.4h-2.4v2.4H101.7z
			 M97,91.2h2.4v-2.4H97V91.2z M94.6,86.4v2.4H97v-2.4H94.6z M101.7,98.2v-2.4h-2.4v2.4H101.7z M97,95.9h2.4v-2.4H97V95.9z
			 M94.6,91.2v2.4H97v-2.4H94.6z M101.7,103v-2.4h-2.4v2.4H101.7z M97,100.6h2.4v-2.4H97V100.6z M94.6,95.9v2.4H97v-2.4H94.6z
			 M101.7,107.7v-2.4h-2.4v2.4H101.7z M97,105.3h2.4V103H97V105.3z M94.6,100.6v2.4H97v-2.4H94.6z M101.7,112.4v-2.4h-2.4v2.4H101.7
			z M97,110.1h2.4v-2.4H97V110.1z M94.6,105.3v2.4H97v-2.4H94.6z M101.7,117.1v-2.4h-2.4v2.4H101.7z M97,114.8h2.4v-2.4H97V114.8z
			 M94.6,110.1v2.4H97v-2.4H94.6z M101.7,121.9v-2.4h-2.4v2.4H101.7z M97,119.5h2.4v-2.4H97V119.5z M94.6,114.8v2.4H97v-2.4H94.6z
			 M101.7,126.6v-2.4h-2.4v2.4H101.7z M97,124.2h2.4v-2.4H97V124.2z M94.6,119.5v2.4H97v-2.4H94.6z M101.7,131.3V129h-2.4v2.4H101.7
			z M97,129h2.4v-2.4H97V129z M94.6,124.2v2.4H97v-2.4H94.6z M101.7,136.1v-2.4h-2.4v2.4H101.7z M97,133.7h2.4v-2.4H97V133.7z
			 M94.6,129v2.4H97V129H94.6z M94.6,136.1H97v-2.4h-2.4V136.1z M115.9,58.1h2.4v-2.4h-2.4V58.1z M118.3,53.3v2.4h2.4v-2.4H118.3z
			 M111.2,58.1h2.4v-2.4h-2.4V58.1z M113.6,53.3v2.4h2.4v-2.4H113.6z M118.3,51h-2.4v2.4h2.4V51z M106.5,58.1h2.4v-2.4h-2.4V58.1z
			 M108.8,53.3v2.4h2.4v-2.4H108.8z M113.6,51h-2.4v2.4h2.4V51z M101.7,58.1h2.4v-2.4h-2.4V58.1z M106.5,55.7v-2.4h-2.4v2.4H106.5z
			 M108.8,51h-2.4v2.4h2.4V51z M101.7,55.7v-2.4h-2.4v2.4H101.7z M104.1,51h-2.4v2.4h2.4V51z M125.4,58.1h2.4v-2.4h-2.4V58.1z
			 M127.7,55.7h2.4v-2.4h-2.4V55.7z M120.6,58.1h2.4v-2.4h-2.4V58.1z M123,53.3v2.4h2.4v-2.4H123z M127.7,51h-2.4v2.4h2.4V51z
			 M123,51h-2.4v2.4h2.4V51z M99.4,51H97v2.4h2.4V51z M94.6,53.3v2.4H97v-2.4H94.6z M104.1,60.4h0.9c0.5-0.4,1-0.8,1.5-1.1v-1.3
			h-2.4V60.4z M101.7,62.8h1.3c0.3-0.5,0.7-1,1.1-1.5v-0.9h-2.4V62.8z"/>
	</g>
</g>
<g id="Blue_20_">
	<g>
		<path class="st3" d="M130.1,84.1h-14.2v2.4h14.2V84.1z M130.1,93.5h-14.2v2.4h14.2V93.5z M115.9,103v2.4h44.9V103H115.9z
			 M115.9,114.8h44.9v-2.4h-44.9V114.8z M115.9,124.2h44.9v-2.4h-44.9V124.2z M115.9,133.7h44.9v-2.4h-44.9V133.7z M115.9,143.1
			h44.9v-2.4h-44.9V143.1z"/>
	</g>
</g>
<g id="Red_19_">
	<g>
		<rect x="115.9" y="74.6" class="st4" width="9.5" height="2.4"/>
	</g>
</g>
<g id="Outline_29_" class="st7">
	<g>
		<path d="M174.3,89.5l-30.7-30.7c-0.4-0.4-1-0.7-1.7-0.7h-7.1v-9.5c0-5.2-4.2-9.5-9.5-9.5H71c-5.2,0-9.5,4.2-9.5,9.5v82.7
			c0,5.2,4.2,9.5,9.5,9.5h30.7v9.5c0,5.2,4.2,9.5,9.5,9.5h54.4c5.2,0,9.5-4.2,9.5-9.5V91.2C175,90.5,174.7,89.9,174.3,89.5z
			 M144.3,66.1l22.7,22.7h-22.7V66.1z M101.7,67.5v68.5H71c-2.6,0-4.7-2.1-4.7-4.7V48.6c0-2.6,2.1-4.7,4.7-4.7h54.4
			c2.6,0,4.7,2.1,4.7,4.7v9.5h-18.9C106,58.1,101.7,62.3,101.7,67.5z M165.5,155h-54.4c-2.6,0-4.7-2.1-4.7-4.7V67.5
			c0-2.6,2.1-4.7,4.7-4.7h28.4v28.4c0,1.3,1.1,2.4,2.4,2.4h28.4v56.7C170.3,152.8,168.2,155,165.5,155z"/>
	</g>
</g>
<g id="Yellow_8_">
	<g>
		<path class="st2" d="M80.3,152.7c5.7,0,10.3-4.6,10.3-10.3H80.3V152.7z M35.6,97.7v55h41.3v-12c0-1,0.8-1.7,1.7-1.7h12V97.7H35.6z
			"/>
	</g>
</g>
<g id="Texture_1_17_" class="st6">
	<g>
		<path d="M80.3,145.8v1.7H82v-1.7H80.3z M83.8,151h1.7v-1.7h-1.7V151z M85.5,142.4h-1.7v1.7h1.7V142.4z M83.8,147.5h1.7v-1.7h-1.7
			V147.5z M90,145.8c0.2-0.6,0.3-1.1,0.4-1.7h-1.6v1.7H90z M80.3,142.4v1.7H82v-1.7H80.3z M83.8,147.5H82v1.7h1.7V147.5z M82,152.5
			c0.6-0.1,1.2-0.2,1.7-0.4V151H82V152.5z M88,149.3h-0.8v0.8C87.5,149.8,87.7,149.5,88,149.3z M87.2,145.8v1.7h1.7v-1.7H87.2z
			 M89.3,147.5h-0.3v0.5C89,147.9,89.1,147.7,89.3,147.5z M80.3,149.3v1.7H82v-1.7H80.3z M87.2,145.8v-1.7h-1.7v1.7H87.2z
			 M85.5,149.3h1.7v-1.7h-1.7V149.3z M83.8,144.1H82v1.7h1.7V144.1z M88.9,142.4h-1.7v1.7h1.7V142.4z M86,151h-0.5v0.3
			C85.7,151.2,85.8,151.1,86,151z M28.7,132.1h1.7v-1.7h-1.7V132.1z M27,132.1v1.7h1.7v-1.7H27z M28.7,135.5h1.7v-1.7h-1.7V135.5z
			 M27,128.6v1.7h1.7v-1.7H27z M28.7,128.6h1.7v-1.7h-1.7V128.6z M28.7,118.3h1.7v-1.7h-1.7V118.3z M28.7,121.7h1.7V120h-1.7V121.7z
			 M27,118.3v1.7h1.7v-1.7H27z M27,125.2v1.7h1.7v-1.7H27z M28.7,125.2h1.7v-1.7h-1.7V125.2z M27,121.7v1.7h1.7v-1.7H27z
			 M32.2,102.8v-1.7h-1.7v1.7H32.2z M39,94.2h1.7v-1.7H39V94.2z M35.6,94.2h1.7v-1.7h-1.7V94.2z M32.2,99.4v-1.7h-1.7v1.7H32.2z
			 M59.7,94.2h1.7v-1.7h-1.7V94.2z M32.2,106.3v-1.7h-1.7v1.7H32.2z M52.8,94.2h1.7v-1.7h-1.7V94.2z M63.1,94.2h1.7v-1.7h-1.7V94.2z
			 M56.2,94.2H58v-1.7h-1.7V94.2z M49.4,94.2h1.7v-1.7h-1.7V94.2z M27,114.9v1.7h1.7v-1.7H27z M32.2,109.7V108h-1.7v1.7H32.2z
			 M42.5,94.2h1.7v-1.7h-1.7V94.2z M32.2,133.8v-1.7h-1.7v1.7H32.2z M30.5,137.2l1.7-0.5v-1.3h-1.7L30.5,137.2L30.5,137.2z
			 M32.2,113.1v-1.7h-1.7v1.7H32.2z M32.2,130.3v-1.7h-1.7v1.7H32.2z M28.7,137.7l1.7-0.5v0h-1.7V137.7z M27,135.5v1.7h1.7v-1.7H27z
			 M32.2,120v-1.7h-1.7v1.7H32.2z M32.2,116.6v-1.7h-1.7v1.7H32.2z M32.2,126.9v-1.7h-1.7v1.7H32.2z M32.2,123.5v-1.7h-1.7v1.7H32.2
			z M45.9,94.2h1.7v-1.7h-1.7V94.2z M54.5,89.1h-1.7v1.7h1.7V89.1z M47.6,90.8v1.7h1.7v-1.7H47.6z M51.1,90.8v1.7h1.7v-1.7H51.1z
			 M51.1,89.1h-1.7v1.7h1.7V89.1z M44.2,90.8v1.7h1.7v-1.7H44.2z M47.6,89.1h-1.7v1.7h1.7V89.1z M37.3,90.8v1.7H39v-1.7H37.3z
			 M40.8,89.1H39v1.7h1.7V89.1z M44.2,89.1h-1.7v1.7h1.7V89.1z M40.8,90.8v1.7h1.7v-1.7H40.8z M58,90.8v1.7h1.7v-1.7H58z M67.3,89.1
			h-0.8v1.7h1.2L67.3,89.1z M64.8,90.8v1.7h1.7v-1.7H64.8z M66.6,92.5v1.7h1.7v-1.6l0-0.1H66.6z M64.8,89.1h-1.7v1.7h1.7V89.1z
			 M61.4,89.1h-1.7v1.7h1.7V89.1z M61.4,90.8v1.7h1.7v-1.7H61.4z M37.3,89.1h-1.7v1.7h1.7V89.1z M58,89.1h-1.7v1.7H58V89.1z
			 M54.5,90.8v1.7h1.7v-1.7H54.5z M30.4,95.9h1.7v-1.7h-1.7V95.9z M27,101.1v1.7h1.7v-1.7H27z M27,97.7v1.7h1.7v-1.7H27z
			 M28.7,101.1h1.7v-1.7h-1.7V101.1z M27,104.5v1.7h1.7v-1.7H27z M28.7,104.5h1.7v-1.7h-1.7V104.5z M28.7,108h1.7v-1.7h-1.7V108z
			 M28.7,111.4h1.7v-1.7h-1.7V111.4z M27,111.4v1.7h1.7v-1.7H27z M27,108v1.7h1.7V108H27z M28.7,114.9h1.7v-1.7h-1.7V114.9z
			 M32.2,92.5v-1.7h-1.7v1.7H32.2z M30.4,92.5h-1.7v1.7h1.7V92.5z M33.9,90.8v1.7h1.7v-1.7H33.9z M32.2,94.2h1.7v-1.7h-1.7V94.2z
			 M28.7,97.7h1.7v-1.7h-1.7V97.7z M27,94.2v1.7h1.7v-1.7H27z M27,90.8v1.7h1.7v-1.7H27z M33.9,89.1h-1.7v1.7h1.7V89.1z M30.4,89.1
			h-1.7v1.7h1.7V89.1z"/>
	</g>
</g>
<g id="Inner_Lines_11_" class="st5">
	<g>
		<path d="M51.1,128.6c-4.7,0-8.6,3.9-8.6,8.6c0,4.7,3.9,8.6,8.6,8.6s8.6-3.9,8.6-8.6C59.7,132.5,55.8,128.6,51.1,128.6z
			 M51.1,144.1c-3.8,0-6.9-3.1-6.9-6.9c0-3.8,3.1-6.9,6.9-6.9s6.9,3.1,6.9,6.9C58,141,54.9,144.1,51.1,144.1z M68.3,104.5H42.5v1.7
			h25.8V104.5z M70,128.6c-1.9,0-3.4,1.5-3.4,3.4c0,1.9,1.5,3.4,3.4,3.4c1.9,0,3.4-1.5,3.4-3.4C73.4,130.2,71.9,128.6,70,128.6z
			 M70,133.8c-0.9,0-1.7-0.8-1.7-1.7c0-0.9,0.8-1.7,1.7-1.7c1,0,1.7,0.8,1.7,1.7C71.7,133,71,133.8,70,133.8z M42.5,116.6h41.3v-1.7
			H42.5V116.6z M42.5,109.7v1.7h41.3v-1.7H42.5z M42.5,121.7h34.4V120H42.5V121.7z"/>
	</g>
</g>
<g id="Outline_17_" class="st7">
	<g>
		<path d="M90.6,94.2h-55c-1.9,0-3.4,1.5-3.4,3.4v55c0,1.9,1.5,3.4,3.4,3.4h44.7c7.6,0,13.8-6.2,13.8-13.8V97.7
			C94.1,95.8,92.5,94.2,90.6,94.2z M76.9,140.7v12H35.6v-55h55v41.3h-12C77.7,138.9,76.9,139.7,76.9,140.7z M80.3,152.7v-10.3h10.3
			C90.6,148.1,86,152.7,80.3,152.7z"/>
	</g>
</g>
</svg>
