<?xml version="1.0" encoding="utf-8"?>
<!-- Generator: Adobe Illustrator 21.0.0, SVG Export Plug-In . SVG Version: 6.00 Build 0)  -->
<!DOCTYPE svg PUBLIC "-//W3C//DTD SVG 1.1//EN" "http://www.w3.org/Graphics/SVG/1.1/DTD/svg11.dtd">
<svg version="1.1" id="Layer_1" xmlns="http://www.w3.org/2000/svg" xmlns:xlink="http://www.w3.org/1999/xlink" x="0px" y="0px"
	 viewBox="0 0 200 200" style="enable-background:new 0 0 200 200;" xml:space="preserve">
<style type="text/css">
	.st0{fill:#FFFFFF;}
	.st1{fill:#85AB70;}
	.st2{fill:#F7D54A;}
	.st3{fill:#86AEDD;}
	.st4{fill:#EE6A56;}
	.st5{opacity:0.149;}
	.st6{opacity:0.102;}
	.st7{opacity:0.851;}
	.st8{fill-rule:evenodd;clip-rule:evenodd;}
	.st9{fill-rule:evenodd;clip-rule:evenodd;fill:#FFFFFF;}
</style>
<g id="White_Base_10_">
	<g>
		<path class="st0" d="M169.3,58.9H34.7c-2.3,0-4.1,1.8-4.1,4.1v87.8c0,2.3,1.8,4.1,4.1,4.1h134.5c2.3,0,4.1-1.8,4.1-4.1V63.1
			C173.4,60.8,171.5,58.9,169.3,58.9z"/>
	</g>
</g>
<g id="Green_4_">
	<g>
		<rect x="134.9" y="72.7" class="st1" width="24.7" height="68.6"/>
	</g>
</g>
<g id="Yellow_3_">
	<g>
		<rect x="104.7" y="72.7" class="st2" width="24.7" height="68.6"/>
	</g>
</g>
<g id="Blue_8_">
	<g>
		<rect x="74.5" y="72.7" class="st3" width="24.7" height="68.6"/>
	</g>
</g>
<g id="Red_7_">
	<g>
		<rect x="44.4" y="72.7" class="st4" width="24.7" height="68.6"/>
	</g>
</g>
<g id="Inner_Lines_7_" class="st5">
	<g>
		<path d="M36.1,64.4v85.1h131.8V64.4H36.1z M165.1,146.8H38.9V67.2h126.3V146.8z"/>
	</g>
</g>
<g id="Texture_1_10_" class="st6">
	<g>
		<path d="M44.4,83.6v2.7h2.7v-2.7H44.4z M47.1,111.1h2.7v-2.7h-2.7V111.1z M44.4,111.1v2.7h2.7v-2.7H44.4z M44.4,116.6v2.7h2.7
			v-2.7H44.4z M47.1,122.1h2.7v-2.7h-2.7V122.1z M47.1,116.6h2.7v-2.7h-2.7V116.6z M44.4,100.1v2.7h2.7v-2.7H44.4z M44.4,89.1v2.7
			h2.7v-2.7H44.4z M47.1,105.6h2.7v-2.7h-2.7V105.6z M47.1,94.6h2.7v-2.7h-2.7V94.6z M47.1,89.1h2.7v-2.7h-2.7V89.1z M44.4,122.1
			v2.7h2.7v-2.7H44.4z M44.4,94.6v2.7h2.7v-2.7H44.4z M47.1,100.1h2.7v-2.7h-2.7V100.1z M44.4,105.6v2.7h2.7v-2.7H44.4z M52.6,108.4
			v-2.7h-2.7v2.7H52.6z M52.6,102.9v-2.7h-2.7v2.7H52.6z M52.6,119.3v-2.7h-2.7v2.7H52.6z M52.6,97.4v-2.7h-2.7v2.7H52.6z
			 M52.6,113.8v-2.7h-2.7v2.7H52.6z M52.6,91.9v-2.7h-2.7v2.7H52.6z M52.6,80.9v-2.7h-2.7v2.7H52.6z M52.6,86.4v-2.7h-2.7v2.7H52.6z
			 M44.4,127.6v2.7h2.7v-2.7H44.4z M52.6,124.8v-2.7h-2.7v2.7H52.6z M44.4,133.1v2.7h2.7v-2.7H44.4z M47.1,133.1h2.7v-2.7h-2.7
			V133.1z M47.1,127.6h2.7v-2.7h-2.7V127.6z M47.1,138.5h2.7v-2.7h-2.7V138.5z M52.6,141.3v-2.7h-2.7v2.7H52.6z M52.6,130.3v-2.7
			h-2.7v2.7H52.6z M52.6,135.8v-2.7h-2.7v2.7H52.6z M44.4,141.3h2.7v-2.7h-2.7V141.3z M44.4,72.7v2.7h2.7v-2.7H44.4z M49.8,75.4h2.7
			v-2.7h-2.7V75.4z M47.1,78.2h2.7v-2.7h-2.7V78.2z M44.4,78.2v2.7h2.7v-2.7H44.4z M47.1,83.6h2.7v-2.7h-2.7V83.6z M104.7,94.6v2.7
			h2.7v-2.7H104.7z M107.5,133.1h2.7v-2.7h-2.7V133.1z M107.5,138.5h2.7v-2.7h-2.7V138.5z M107.5,127.6h2.7v-2.7h-2.7V127.6z
			 M113,141.3v-2.7h-2.7v2.7H113z M107.5,122.1h2.7v-2.7h-2.7V122.1z M113,130.3v-2.7h-2.7v2.7H113z M113,124.8v-2.7h-2.7v2.7H113z
			 M113,135.8v-2.7h-2.7v2.7H113z M107.5,116.6h2.7v-2.7h-2.7V116.6z M107.5,94.6h2.7v-2.7h-2.7V94.6z M104.7,100.1v2.7h2.7v-2.7
			H104.7z M107.5,105.6h2.7v-2.7h-2.7V105.6z M113,72.7h-2.7v2.7h2.7V72.7z M107.5,100.1h2.7v-2.7h-2.7V100.1z M104.7,89.1v2.7h2.7
			v-2.7H104.7z M104.7,111.1v2.7h2.7v-2.7H104.7z M104.7,105.6v2.7h2.7v-2.7H104.7z M107.5,111.1h2.7v-2.7h-2.7V111.1z M113,80.9
			v-2.7h-2.7v2.7H113z M104.7,124.8h2.7v-2.7h-2.7V124.8z M104.7,130.3h2.7v-2.7h-2.7V130.3z M104.7,78.2v2.7h2.7v-2.7H104.7z
			 M104.7,119.3h2.7v-2.7h-2.7V119.3z M104.7,135.8h2.7v-2.7h-2.7V135.8z M104.7,83.6v2.7h2.7v-2.7H104.7z M107.5,83.6h2.7v-2.7
			h-2.7V83.6z M104.7,141.3h2.7v-2.7h-2.7V141.3z M107.5,89.1h2.7v-2.7h-2.7V89.1z M113,108.4v-2.7h-2.7v2.7H113z M113,86.4v-2.7
			h-2.7v2.7H113z M107.5,75.4v2.7h2.7v-2.7H107.5z M113,102.9v-2.7h-2.7v2.7H113z M113,113.8v-2.7h-2.7v2.7H113z M113,119.3v-2.7
			h-2.7v2.7H113z M104.7,72.7v2.7h2.7v-2.7H104.7z M113,91.9v-2.7h-2.7v2.7H113z M113,97.4v-2.7h-2.7v2.7H113z"/>
	</g>
</g>
<g id="Outline_10_" class="st7">
	<g>
		<path d="M167.9,53.5h-52.2c-0.2-2.3-1-4.4-2.2-6.2l10.5-10.5c0.5,0.1,0.9,0.2,1.4,0.2c3,0,5.5-2.5,5.5-5.5s-2.5-5.5-5.5-5.5
			c-3,0-5.5,2.5-5.5,5.5c0,0.5,0.1,1,0.2,1.4l-10.5,10.5c-2.2-1.4-4.8-2.3-7.6-2.3s-5.4,0.8-7.6,2.3L84,32.9
			c0.1-0.5,0.2-0.9,0.2-1.4c0-3-2.5-5.5-5.5-5.5s-5.5,2.5-5.5,5.5s2.5,5.5,5.5,5.5c0.5,0,1-0.1,1.4-0.2l10.5,10.5
			c-1.2,1.8-2,3.9-2.2,6.2H36.1c-6.1,0-11,4.9-11,11v85.1c0,6.1,4.9,11,11,11h5.5c0,3,2.5,5.5,5.5,5.5s5.5-2.5,5.5-5.5h98.8
			c0,3,2.5,5.5,5.5,5.5s5.5-2.5,5.5-5.5h5.5c6.1,0,11-4.9,11-11V64.4C178.9,58.4,173.9,53.5,167.9,53.5z M173.4,149.5
			c0,3-2.5,5.5-5.5,5.5H36.1c-3,0-5.5-2.5-5.5-5.5V64.4c0-3,2.5-5.5,5.5-5.5h131.8c3,0,5.5,2.5,5.5,5.5V149.5z"/>
	</g>
</g>
<circle class="st8" cx="102" cy="105" r="28"/>
<circle class="st9" cx="102" cy="105" r="24"/>
<circle class="st8" cx="111" cy="105" r="2"/>
<polygon class="st8" points="96.1,98.8 97.9,95.2 111.9,103.2 110.1,106.8 "/>
<polygon class="st8" points="110.1,103.2 111.9,106.8 97.9,114.8 96.1,111.2 "/>
<polygon class="st8" points="97,97 97,113 111,105 "/>
</svg>
