<svg id="Layer_1" data-name="Layer 1" xmlns="http://www.w3.org/2000/svg" viewBox="0 0 200 200"><defs><style>.cls-1{fill:#fff;}.cls-2{opacity:0.1;}.cls-3{fill:#86aedd;}.cls-4{fill:#ee6a56;}.cls-5{opacity:0.85;}.cls-6{fill:#f7d54a;}.cls-7{opacity:0.15;}</style></defs><title>Artboard 1 copy 3</title><g id="White_Base" data-name="White Base"><path class="cls-1" d="M144.28,66.14V88.79h22.65Zm-2.36,27.38a2.36,2.36,0,0,1-2.36-2.36V62.79H111.19a4.73,4.73,0,0,0-4.73,4.73v82.71a4.73,4.73,0,0,0,4.73,4.73h54.35a4.72,4.72,0,0,0,4.73-4.73V93.52ZM130.1,58.07V48.61a4.73,4.73,0,0,0-4.73-4.73H71a4.73,4.73,0,0,0-4.73,4.73v82.71A4.73,4.73,0,0,0,71,136.05h30.72V67.52a9.45,9.45,0,0,1,9.45-9.45Z"/></g><g id="Texture_1" data-name="Texture 1" class="cls-2"><path d="M153.73,88.79h2.36V86.43h-2.36Zm-9.45-16.54v2.36h2.36V72.25ZM153.73,77V75.59l-1-1h-1.38V77ZM149,70.86l-1-1h-1.38v2.36H149Zm-3.34-3.34h-1.38v2.36h2.36V68.5Zm5.71,7.09V73.23l-1-1H149v2.36ZM144.28,77v2.36h2.36V77ZM149,81.7v2.36h2.36V81.7Zm11.82,2.36V82.68l-1-1h-1.38v2.36Zm-2.36-2.36V80.32l-1-1h-1.38V81.7Zm-14.18,0v2.36h2.36V81.7Zm9.45,0v2.36h2.36V81.7ZM151.37,77H149v2.36h2.36Zm4.73,2.36V78l-1-1h-1.38v2.36Zm0,4.73v2.36h2.36V84.06Zm2.36,4.73h2.36V86.43h-2.36Zm-11.82-4.73v2.36H149V84.06Zm15.56,0h-1.38v2.36h2.36V85ZM149,74.61h-2.36V77H149Zm4.73,7.09V79.34h-2.36V81.7Zm10.84,4.73h-1.38v2.36h2.36V87.41Zm-13.2-2.36v2.36h2.36V84.06ZM149,79.34h-2.36V81.7H149Zm0,9.45h2.36V86.43H149Zm-4.73,0h2.36V86.43h-2.36ZM99.38,60.43h2.36V58.07H99.38Zm0-4.73H97v2.36h2.36Zm0,9.45h2.36V62.79H99.38Zm0-4.73H97v2.36h2.36Zm-4.73-2.36v2.36H97V58.07Zm7.09,11.82V67.52H99.38v2.36ZM97,67.52h2.36V65.16H97Zm-2.36-4.73v2.36H97V62.79Zm7.09,11.82V72.25H99.38v2.36ZM97,72.25h2.36V69.88H97Zm-2.36-4.73v2.36H97V67.52Zm7.09,11.82V77H99.38v2.36ZM97,77h2.36V74.61H97Zm-2.36-4.73v2.36H97V72.25Zm7.09,11.82V81.7H99.38v2.36ZM97,81.7h2.36V79.34H97ZM94.65,77v2.36H97V77Zm7.09,11.82V86.43H99.38v2.36ZM97,86.43h2.36V84.06H97ZM94.65,81.7v2.36H97V81.7Zm7.09,11.82V91.15H99.38v2.36ZM97,91.15h2.36V88.79H97Zm-2.36-4.73v2.36H97V86.43Zm7.09,11.82V95.88H99.38v2.36ZM97,95.88h2.36V93.52H97Zm-2.36-4.73v2.36H97V91.15ZM101.74,103v-2.36H99.38V103ZM97,100.61h2.36V98.24H97Zm-2.36-4.73v2.36H97V95.88Zm7.09,11.82v-2.36H99.38v2.36ZM97,105.33h2.36V103H97Zm-2.36-4.73V103H97v-2.36Zm7.09,11.82v-2.36H99.38v2.36ZM97,110.06h2.36V107.7H97Zm-2.36-4.73v2.36H97v-2.36Zm7.09,11.82v-2.36H99.38v2.36ZM97,114.79h2.36v-2.36H97Zm-2.36-4.73v2.36H97v-2.36Zm7.09,11.82v-2.36H99.38v2.36ZM97,119.51h2.36v-2.36H97Zm-2.36-4.73v2.36H97v-2.36Zm7.09,11.82v-2.36H99.38v2.36ZM97,124.24h2.36v-2.36H97Zm-2.36-4.73v2.36H97v-2.36Zm7.09,11.82V129H99.38v2.36ZM97,129h2.36V126.6H97Zm-2.36-4.73v2.36H97v-2.36Zm7.09,11.82v-2.36H99.38v2.36ZM97,133.69h2.36v-2.36H97ZM94.65,129v2.36H97V129Zm0,7.09H97v-2.36H94.65Zm21.27-78h2.36V55.7h-2.36Zm2.36-4.73V55.7h2.36V53.34Zm-7.09,4.73h2.36V55.7h-2.36Zm2.36-4.73V55.7h2.36V53.34ZM118.28,51h-2.36v2.36h2.36Zm-11.82,7.09h2.36V55.7h-2.36Zm2.36-4.73V55.7h2.36V53.34ZM113.56,51h-2.36v2.36h2.36Zm-11.82,7.09h2.36V55.7h-2.36Zm4.73-2.36V53.34H104.1V55.7ZM108.83,51h-2.36v2.36h2.36Zm-7.09,4.73V53.34H99.38V55.7ZM104.1,51h-2.36v2.36h2.36Zm21.27,7.09h2.36V55.7h-2.36Zm2.36-2.36h2.36V53.34h-2.36Zm-7.09,2.36H123V55.7h-2.36ZM123,53.34V55.7h2.36V53.34ZM127.74,51h-2.36v2.36h2.36ZM123,51h-2.36v2.36H123ZM99.38,51H97v2.36h2.36Zm-4.73,2.36V55.7H97V53.34Zm7.09,9.45H103a9.47,9.47,0,0,1,1.09-1.51v-.85h-2.36Zm2.36-2.36H105a9.47,9.47,0,0,1,1.51-1.09V58.07H104.1Z"/></g><g id="Blue"><path class="cls-3" d="M130.1,84.06H115.92v2.36H130.1Zm0,9.45H115.92v2.36H130.1ZM115.92,103v2.36h44.9V103Zm0,11.82h44.9v-2.36h-44.9Zm0,9.45h44.9v-2.36h-44.9Zm0,9.45h44.9v-2.36h-44.9Zm0,9.45h44.9v-2.36h-44.9Z"/></g><g id="Red"><rect class="cls-4" x="115.92" y="74.61" width="9.45" height="2.36"/></g><g id="Outline" class="cls-5"><path d="M174.31,89.48,143.59,58.76a2.36,2.36,0,0,0-1.67-.69h-7.09V48.61a9.45,9.45,0,0,0-9.45-9.45H71a9.45,9.45,0,0,0-9.45,9.45v82.71A9.45,9.45,0,0,0,71,140.78h30.72v9.45a9.45,9.45,0,0,0,9.45,9.45h54.35a9.45,9.45,0,0,0,9.45-9.45V91.15A2.36,2.36,0,0,0,174.31,89.48Zm-30-23.35,22.65,22.65H144.28Zm-42.54,1.38v68.53H71a4.73,4.73,0,0,1-4.73-4.73V48.61A4.73,4.73,0,0,1,71,43.89h54.35a4.73,4.73,0,0,1,4.73,4.73v9.45H111.19A9.45,9.45,0,0,0,101.74,67.52ZM165.55,155H111.19a4.73,4.73,0,0,1-4.73-4.73V67.52a4.73,4.73,0,0,1,4.73-4.73h28.36V91.15a2.36,2.36,0,0,0,2.36,2.36h28.36v56.72A4.73,4.73,0,0,1,165.55,155Z"/></g><g id="Yellow"><path class="cls-6" d="M80.32,152.7a10.32,10.32,0,0,0,10.32-10.32H80.32Zm-44.72-55v55H76.88v-12a1.72,1.72,0,0,1,1.72-1.72h12V97.66Z"/></g><g id="Texture_1-2" data-name="Texture 1" class="cls-2"><path d="M83.76,144.1H82v1.72h1.72Zm3.44,1.72V144.1H85.48v1.72Zm2,1.72h-.33v.54C89,147.91,89.14,147.72,89.25,147.54Zm-2-1.72v1.72h1.72v-1.72Zm-3.44,1.72H82v1.72h1.72Zm1.72,1.72H87.2v-1.72H85.48ZM83.76,151h1.72v-1.72H83.76Zm0-3.44h1.72v-1.72H83.76Zm-3.44-5.16v1.72H82v-1.72ZM82,152.55a10.23,10.23,0,0,0,1.72-.45V151H82Zm3.44-10.17H83.76v1.72h1.72ZM90,145.82a10.23,10.23,0,0,0,.45-1.72H88.92v1.72Zm-9.72,3.44V151H82v-1.72Zm0-3.44v1.72H82v-1.72Zm8.6-3.44H87.2v1.72h1.72ZM86,151h-.54v.33Zm2-1.72h-.8v.8A10.38,10.38,0,0,0,88,149.26Zm-61-31V120h1.72V118.3Zm1.72,3.44h1.72V120H28.72Zm0,13.76h1.72v-1.72H28.72ZM27,132.06v1.72h1.72v-1.72Zm1.72,0h1.72v-1.72H28.72Zm0-6.88h1.72v-1.72H28.72Zm-1.72,0v1.72h1.72v-1.72Zm1.72,3.44h1.72V126.9H28.72ZM27,121.74v1.72h1.72v-1.72Zm0,6.88v1.72h1.72v-1.72Zm3.45,8.6,1.71-.46V135.5H30.44v1.72Zm12-43H44.2V92.5H42.48Zm-3.44,0h1.72V92.5H39Zm-6.88,5.16V97.66H30.44v1.72Zm3.44-5.16h1.72V92.5H35.6Zm10.32,0h1.72V92.5H45.92Zm3.44,0h1.72V92.5H49.36Zm10.32,0H61.4V92.5H59.68Zm3.44,0h1.72V92.5H63.12Zm-31,8.6V101.1H30.44v1.72Zm20.64-8.6h1.72V92.5H52.8Zm3.44,0H58V92.5H56.24ZM32.16,130.34v-1.72H30.44v1.72Zm0,3.44v-1.72H30.44v1.72Zm0-6.88v-1.72H30.44v1.72ZM27,135.5v1.72h1.72V135.5Zm1.72,2.18,1.72-.46H28.72Zm0-19.39h1.72v-1.72H28.72ZM32.16,120V118.3H30.44V120Zm0-10.32V108H30.44v1.72Zm0,13.76v-1.72H30.44v1.72Zm0-10.32v-1.72H30.44v1.72Zm0-6.88v-1.72H30.44v1.72Zm0,10.32v-1.72H30.44v1.72ZM61.4,89.06H59.68v1.72H61.4Zm-13.76,0H45.92v1.72h1.72ZM44.2,90.78V92.5h1.72V90.78Zm-10.32,0V92.5H35.6V90.78Zm17.2-1.72H49.36v1.72h1.72Zm0,1.72V92.5H52.8V90.78Zm-3.44,0V92.5h1.72V90.78Zm-10.32,0V92.5H39V90.78Zm3.44,0V92.5h1.72V90.78Zm-3.44-1.72H35.6v1.72h1.72Zm3.44,0H39v1.72h1.72Zm3.44,0H42.48v1.72H44.2Zm23.13,0h-.77v1.72h1.23Zm-2.49,1.72V92.5h1.72V90.78Zm1.72,1.72v1.72h1.72V92.61l0-.11Zm-1.72-3.44H63.12v1.72h1.72ZM54.52,90.78V92.5h1.72V90.78ZM58,89.06H56.24v1.72H58Zm-3.44,0H52.8v1.72h1.72ZM27,114.86v1.72h1.72v-1.72ZM61.4,90.78V92.5h1.72V90.78Zm-3.44,0V92.5h1.72V90.78ZM28.72,108h1.72v-1.72H28.72Zm3.44-13.76h1.72V92.5H32.16Zm-3.44,10.32h1.72v-1.72H28.72ZM27,101.1v1.72h1.72V101.1Zm0,3.44v1.72h1.72v-1.72Zm0,6.88v1.72h1.72v-1.72Zm1.72,3.44h1.72v-1.72H28.72Zm0-3.44h1.72V109.7H28.72ZM27,108v1.72h1.72V108Zm1.72-6.88h1.72V99.38H28.72Zm3.44-8.6V90.78H30.44V92.5Zm-1.72,0H28.72v1.72h1.72Zm0,3.44h1.72V94.22H30.44Zm3.44-6.88H32.16v1.72h1.72ZM27,97.66v1.72h1.72V97.66Zm0-3.44v1.72h1.72V94.22Zm1.72,3.44h1.72V95.94H28.72Zm1.72-8.6H28.72v1.72h1.72ZM27,90.78V92.5h1.72V90.78Z"/></g><g id="Inner_Lines" data-name="Inner Lines" class="cls-7"><path d="M70,128.62a3.44,3.44,0,1,0,3.44,3.44A3.44,3.44,0,0,0,70,128.62Zm0,5.16a1.72,1.72,0,1,1,1.72-1.72A1.72,1.72,0,0,1,70,133.78Zm-1.72-29.24H42.48v1.72h25.8Zm-17.2,24.08a8.6,8.6,0,1,0,8.6,8.6A8.6,8.6,0,0,0,51.08,128.62Zm0,15.48A6.88,6.88,0,1,1,58,137.22,6.88,6.88,0,0,1,51.08,144.1Zm-8.6-34.4v1.72H83.76V109.7Zm0,6.88H83.76v-1.72H42.48Zm0,5.16h34.4V120H42.48Z"/></g><g id="Outline-2" data-name="Outline" class="cls-5"><path d="M90.64,94.22h-55a3.44,3.44,0,0,0-3.44,3.44v55a3.44,3.44,0,0,0,3.44,3.44H80.32a13.76,13.76,0,0,0,13.76-13.76V97.66A3.44,3.44,0,0,0,90.64,94.22ZM76.88,140.66v12H35.6v-55h55v41.28h-12A1.72,1.72,0,0,0,76.88,140.66Zm3.44,12V142.38H90.64A10.32,10.32,0,0,1,80.32,152.7Z"/></g></svg>