<?xml version="1.0" encoding="utf-8"?>
<!-- Generator: Adobe Illustrator 21.0.0, SVG Export Plug-In . SVG Version: 6.00 Build 0)  -->
<!DOCTYPE svg PUBLIC "-//W3C//DTD SVG 1.1//EN" "http://www.w3.org/Graphics/SVG/1.1/DTD/svg11.dtd">
<svg version="1.1" id="Layer_1" xmlns="http://www.w3.org/2000/svg" xmlns:xlink="http://www.w3.org/1999/xlink" x="0px" y="0px"
	 viewBox="0 0 200 200" style="enable-background:new 0 0 200 200;" xml:space="preserve">
<style type="text/css">
	.st0{fill:#FFFFFF;}
	.st1{fill:#85AB70;}
	.st2{fill:#F7D54A;}
	.st3{fill:#86AEDD;}
	.st4{fill:#EE6A56;}
	.st5{opacity:0.149;}
	.st6{opacity:0.102;}
	.st7{opacity:0.851;}
	.st8{fill-rule:evenodd;clip-rule:evenodd;}
	.st9{fill-rule:evenodd;clip-rule:evenodd;fill:#FFFFFF;}
</style>
<g id="White_Base_11_">
	<g>
		<path class="st0" d="M27.6,151.5c0,1.2,0.4,2.2,1,3.1c0.8,1.2,2,2,3.5,2.3c0.4,0.1,0.7,0.1,1.1,0.1h30.6V65.2H27.6V151.5z
			 M69.4,157.1h97.5c0.4,0,0.8,0,1.1-0.1c1.5-0.3,2.7-1.2,3.5-2.3c0.6-0.9,1-2,1-3.1V65.2H69.4V157.1z M171.5,45.3
			c-0.8-1.2-2-2-3.5-2.3c-0.4-0.1-0.7-0.1-1.1-0.1H33.1c-0.4,0-0.8,0-1.1,0.1c-1.5,0.3-2.7,1.2-3.5,2.3c-0.6,0.9-1,2-1,3.1v11.1
			h144.9V48.5C172.4,47.3,172.1,46.2,171.5,45.3z"/>
	</g>
</g>
<g id="Green_5_">
	<g>
		<path class="st1" d="M33.1,98.6v2.8h22.3v-2.8H33.1z M33.1,123.7h19.5v-2.8H33.1V123.7z"/>
	</g>
</g>
<g id="Yellow_4_">
	<g>
		<path class="st2" d="M33.1,84.7h25.1v-2.8H33.1V84.7z M134.8,90.2c0-1.5-1.2-2.8-2.8-2.8c-1.3,0-2.4,0.9-2.7,2.1l0,0l-11.1,41.8
			l0,0c-0.1,0.2-0.1,0.5-0.1,0.7c0,1.5,1.2,2.8,2.8,2.8c1.3,0,2.4-0.9,2.7-2.1l0,0L134.7,91l0,0C134.8,90.7,134.8,90.5,134.8,90.2z
			 M33.1,90.2h22.3v-2.8H33.1V90.2z M33.1,95.8h12.5V93H33.1V95.8z"/>
	</g>
</g>
<g id="Blue_9_">
	<g>
		<path class="st3" d="M113.9,97.2c0-1.5-1.2-2.8-2.8-2.8c-0.8,0-1.5,0.3-2,0.8l0,0l-13.9,13.9c-0.5,0.5-0.8,1.2-0.8,2
			c0,0.8,0.3,1.5,0.8,2l13.9,13.9l0,0c0.5,0.5,1.2,0.8,2,0.8c1.5,0,2.8-1.2,2.8-2.8c0-0.8-0.3-1.5-0.8-2l-12-12l12-12
			C113.6,98.7,113.9,98,113.9,97.2z M157.7,109.2l-13.9-13.9c-0.5-0.5-1.2-0.8-2-0.8c-1.5,0-2.8,1.2-2.8,2.8c0,0.8,0.3,1.5,0.8,2
			l12,12l-12,12c-0.5,0.5-0.8,1.2-0.8,2c0,1.5,1.2,2.8,2.8,2.8c0.8,0,1.5-0.3,2-0.8l13.9-13.9c0.5-0.5,0.8-1.2,0.8-2
			C158.5,110.4,158.2,109.7,157.7,109.2z M52.6,76.3H33.1v2.8h19.5V76.3z M47.1,104.2H33.1v2.8h13.9V104.2z M33.1,112.5h25.1v-2.8
			H33.1V112.5z"/>
	</g>
</g>
<g id="Red_8_">
	<g>
		<path class="st4" d="M33.1,70.8v2.8h25.1v-2.8H33.1z M33.1,118.1h16.7v-2.8H33.1V118.1z"/>
	</g>
</g>
<g id="Inner_Lines_8_" class="st5">
	<g>
		<path d="M77.7,65.2v91.9h2.8V65.2H77.7z M35.9,48.5c-1.5,0-2.8,1.2-2.8,2.8c0,1.5,1.2,2.8,2.8,2.8c1.5,0,2.8-1.2,2.8-2.8
			C38.7,49.7,37.5,48.5,35.9,48.5z M44.3,48.5c-1.5,0-2.8,1.2-2.8,2.8c0,1.5,1.2,2.8,2.8,2.8c1.5,0,2.8-1.2,2.8-2.8
			C47.1,49.7,45.8,48.5,44.3,48.5z M52.6,48.5c-1.5,0-2.8,1.2-2.8,2.8c0,1.5,1.2,2.8,2.8,2.8c1.5,0,2.8-1.2,2.8-2.8
			C55.4,49.7,54.2,48.5,52.6,48.5z"/>
	</g>
</g>
<g id="Texture_1_11_" class="st6">
	<g>
		<path d="M72.1,146h2.8v-2.8h-2.8V146z M77.7,126.5v-2.8h-2.8v2.8H77.7z M77.7,148.7V146h-2.8v2.8H77.7z M77.7,137.6v-2.8h-2.8v2.8
			H77.7z M72.1,151.5h2.8v-2.8h-2.8V151.5z M77.7,143.2v-2.8h-2.8v2.8H77.7z M77.7,154.3v-2.8h-2.8v2.8H77.7z M72.1,157.1h2.8v-2.8
			h-2.8V157.1z M69.4,137.6h2.8v-2.8h-2.8V137.6z M69.4,143.2h2.8v-2.8h-2.8V143.2z M72.1,140.4h2.8v-2.8h-2.8V140.4z M69.4,132h2.8
			v-2.8h-2.8V132z M69.4,148.7h2.8V146h-2.8V148.7z M77.7,87.5v-2.8h-2.8v2.8H77.7z M69.4,154.3h2.8v-2.8h-2.8V154.3z M77.7,109.7
			V107h-2.8v2.8H77.7z M77.7,115.3v-2.8h-2.8v2.8H77.7z M77.7,120.9v-2.8h-2.8v2.8H77.7z M77.7,104.2v-2.8h-2.8v2.8H77.7z
			 M77.7,98.6v-2.8h-2.8v2.8H77.7z M77.7,93v-2.8h-2.8V93H77.7z M77.7,132v-2.8h-2.8v2.8H77.7z M72.1,95.8h2.8V93h-2.8V95.8z
			 M72.1,101.4h2.8v-2.8h-2.8V101.4z M69.4,95.8v2.8h2.8v-2.8H69.4z M69.4,101.4v2.8h2.8v-2.8H69.4z M69.4,84.7v2.8h2.8v-2.8H69.4z
			 M72.1,107h2.8v-2.8h-2.8V107z M72.1,90.2h2.8v-2.8h-2.8V90.2z M69.4,90.2V93h2.8v-2.8H69.4z M72.1,118.1h2.8v-2.8h-2.8V118.1z
			 M69.4,123.7v2.8h2.8v-2.8H69.4z M72.1,123.7h2.8v-2.8h-2.8V123.7z M72.1,129.2h2.8v-2.8h-2.8V129.2z M69.4,118.1v2.8h2.8v-2.8
			H69.4z M69.4,112.5v2.8h2.8v-2.8H69.4z M72.1,134.8h2.8V132h-2.8V134.8z M72.1,112.5h2.8v-2.8h-2.8V112.5z M69.4,107v2.8h2.8V107
			H69.4z M77.7,68h-2.8v2.8h2.8V68z M72.1,79.1h-2.8v2.8h2.8V79.1z M72.1,68h-2.8v2.8h2.8V68z M72.1,73.5h-2.8v2.8h2.8V73.5z
			 M72.1,65.2V68h2.8v-2.8H72.1z M72.1,70.8v2.8h2.8v-2.8H72.1z M77.7,81.9v-2.8h-2.8v2.8H77.7z M77.7,76.3v-2.8h-2.8v2.8H77.7z
			 M72.1,84.7h2.8v-2.8h-2.8V84.7z M72.1,79.1h2.8v-2.8h-2.8V79.1z"/>
	</g>
</g>
<g id="Outline_11_" class="st7">
	<g>
		<path d="M166.9,37.3H33.1c-6.2,0-11.1,5-11.1,11.1v103.1c0,6.2,5,11.1,11.1,11.1h133.7c6.2,0,11.1-5,11.1-11.1V48.5
			C178,42.3,173,37.3,166.9,37.3z M33.1,157.1c-3.1,0-5.6-2.5-5.6-5.6V65.2h36.2v91.9H33.1z M172.4,151.5c0,3.1-2.5,5.6-5.6,5.6
			H69.4V65.2h103.1V151.5z M172.4,59.6H27.6V48.5c0-3.1,2.5-5.6,5.6-5.6h133.7c3.1,0,5.6,2.5,5.6,5.6V59.6z"/>
	</g>
</g>
</svg>
