<svg id="Layer_1" data-name="Layer 1" xmlns="http://www.w3.org/2000/svg" viewBox="0 0 200 200"><defs><style>.cls-1{fill:#fff;}.cls-2{fill:#85ab70;}.cls-3{fill:#f7d54a;}.cls-4{fill:#86aedd;}.cls-5{fill:#ee6a56;}.cls-6{opacity:0.15;}.cls-7{opacity:0.1;}.cls-8{opacity:0.85;}</style></defs><title>Artboard 1</title><g id="White_Base" data-name="White Base"><path class="cls-1" d="M27.57,151.54a5.57,5.57,0,0,0,5.57,5.57H63.79V65.18H27.57Zm41.79,5.57h97.5a5.57,5.57,0,0,0,5.57-5.57V65.18H69.36ZM171.48,45.35a5.56,5.56,0,0,0-4.62-2.46H33.14a5.57,5.57,0,0,0-5.57,5.57V59.61H172.43V48.46A5.55,5.55,0,0,0,171.48,45.35Z"/></g><g id="Green"><path class="cls-2" d="M33.14,98.61v2.79H55.43V98.61Zm0,25.07h19.5v-2.79H33.14Z"/></g><g id="Yellow"><path class="cls-3" d="M33.14,84.68H58.21V81.89H33.14Zm101.68,5.57a2.78,2.78,0,0,0-5.47-.72h0L118.2,131.32h0a2.78,2.78,0,1,0,5.36,1.43h0L134.73,91h0A2.76,2.76,0,0,0,134.82,90.25Zm-101.68,0H55.43V87.46H33.14Zm0,5.57H45.68V93H33.14Z"/></g><g id="Blue"><path class="cls-4" d="M113.93,97.21a2.79,2.79,0,0,0-4.76-2h0L95.24,109.17a2.79,2.79,0,0,0,0,3.94L109.17,127h0a2.79,2.79,0,1,0,3.94-3.94l-12-12,12-12A2.78,2.78,0,0,0,113.93,97.21Zm43.76,12L143.76,95.24a2.79,2.79,0,0,0-3.94,3.94l12,12-12,12a2.79,2.79,0,1,0,3.94,3.94l13.93-13.93a2.79,2.79,0,0,0,0-3.94Zm-105-32.85H33.14v2.79h19.5Zm-5.57,27.86H33.14V107H47.07Zm-13.93,8.36H58.21v-2.79H33.14Z"/></g><g id="Red"><path class="cls-5" d="M33.14,70.75v2.79H58.21V70.75Zm0,47.36H49.86v-2.79H33.14Z"/></g><g id="Inner_Lines" data-name="Inner Lines" class="cls-6"><path d="M77.71,65.18v91.93H80.5V65.18ZM35.93,48.46a2.79,2.79,0,1,0,2.79,2.79A2.79,2.79,0,0,0,35.93,48.46Zm8.36,0a2.79,2.79,0,1,0,2.79,2.79A2.79,2.79,0,0,0,44.29,48.46Zm8.36,0a2.79,2.79,0,1,0,2.79,2.79A2.79,2.79,0,0,0,52.64,48.46Z"/></g><g id="Texture_1" data-name="Texture 1" class="cls-7"><path d="M72.14,146h2.79v-2.79H72.14Zm5.57-19.5v-2.79H74.93v2.79Zm0,22.29V146H74.93v2.79Zm0-11.14v-2.79H74.93v2.79Zm-5.57,13.93h2.79v-2.79H72.14Zm5.57-8.36v-2.79H74.93v2.79Zm0,11.14v-2.79H74.93v2.79Zm-5.57,2.79h2.79v-2.79H72.14Zm-2.79-19.5h2.79v-2.79H69.36Zm0,5.57h2.79v-2.79H69.36Zm2.79-2.79h2.79v-2.79H72.14ZM69.36,132h2.79v-2.79H69.36Zm0,16.71h2.79V146H69.36Zm8.36-61.29V84.68H74.93v2.79Zm-8.36,66.86h2.79v-2.79H69.36Zm8.36-44.57V107H74.93v2.79Zm0,5.57v-2.79H74.93v2.79Zm0,5.57v-2.79H74.93v2.79Zm0-16.71v-2.79H74.93v2.79Zm0-5.57V95.82H74.93v2.79Zm0-5.57V90.25H74.93V93Zm0,39v-2.79H74.93V132ZM72.14,95.82h2.79V93H72.14Zm0,5.57h2.79V98.61H72.14Zm-2.79-5.57v2.79h2.79V95.82Zm0,5.57v2.79h2.79v-2.79Zm0-16.71v2.79h2.79V84.68ZM72.14,107h2.79v-2.79H72.14Zm0-16.71h2.79V87.46H72.14Zm-2.79,0V93h2.79V90.25Zm2.79,27.86h2.79v-2.79H72.14Zm-2.79,5.57v2.79h2.79v-2.79Zm2.79,0h2.79v-2.79H72.14Zm0,5.57h2.79v-2.79H72.14Zm-2.79-11.14v2.79h2.79v-2.79Zm0-5.57v2.79h2.79v-2.79Zm2.79,22.29h2.79V132H72.14Zm0-22.29h2.79v-2.79H72.14ZM69.36,107v2.79h2.79V107Zm8.36-39H74.93v2.79h2.79ZM72.14,79.11H69.36v2.79h2.79Zm0-11.14H69.36v2.79h2.79Zm0,5.57H69.36v2.79h2.79Zm0-8.36V68h2.79V65.18Zm0,5.57v2.79h2.79V70.75Zm5.57,11.14V79.11H74.93v2.79Zm0-5.57V73.54H74.93v2.79Zm-5.57,8.36h2.79V81.89H72.14Zm0-5.57h2.79V76.32H72.14Z"/></g><g id="Outline" class="cls-8"><path d="M166.86,37.32H33.14A11.14,11.14,0,0,0,22,48.46V151.54a11.14,11.14,0,0,0,11.14,11.14H166.86A11.14,11.14,0,0,0,178,151.54V48.46A11.14,11.14,0,0,0,166.86,37.32ZM33.14,157.11a5.57,5.57,0,0,1-5.57-5.57V65.18H63.79v91.93Zm139.29-5.57a5.57,5.57,0,0,1-5.57,5.57H69.36V65.18H172.43Zm0-91.93H27.57V48.46a5.57,5.57,0,0,1,5.57-5.57H166.86a5.57,5.57,0,0,1,5.57,5.57Z"/></g></svg>