<svg id="Layer_1" data-name="Layer 1" xmlns="http://www.w3.org/2000/svg" viewBox="0 0 200 200"><defs><style>.cls-1{fill:#fff;}.cls-2{fill:#85ab70;}.cls-3{fill:#f7d54a;}.cls-4{fill:#86aedd;}.cls-5{fill:#ee6a56;}.cls-6{opacity:0.15;}.cls-7{opacity:0.1;}.cls-8{opacity:0.85;}.cls-9{fill-rule:evenodd;}</style></defs><title>Artboard 1 copy</title><g id="White_Base" data-name="White Base"><rect class="cls-1" x="30.63" y="58.94" width="142.75" height="96.08" rx="4.12" ry="4.12"/></g><g id="Green"><rect class="cls-2" x="134.94" y="72.67" width="24.71" height="68.63"/></g><g id="Yellow"><rect class="cls-3" x="104.75" y="72.67" width="24.71" height="68.63"/></g><g id="Blue"><rect class="cls-4" x="74.55" y="72.67" width="24.71" height="68.63"/></g><g id="Red"><rect class="cls-5" x="44.35" y="72.67" width="24.71" height="68.63"/></g><g id="Inner_Lines" data-name="Inner Lines" class="cls-6"><path d="M36.12,64.43v85.1H167.88V64.43Zm129,82.35H38.86V67.18H165.14Z"/></g><g id="Texture_1" data-name="Texture 1" class="cls-7"><path d="M47.1,116.59h2.75v-2.75H47.1Zm0-5.49h2.75v-2.75H47.1Zm-2.75,0v2.75H47.1V111.1Zm2.75-11h2.75V97.37H47.1Zm0-5.49h2.75V91.88H47.1Zm-2.75-5.49v2.75H47.1V89.14Zm2.75,0h2.75V86.39H47.1Zm-2.75,16.47v2.75H47.1v-2.75Zm0-22v2.75H47.1V83.65Zm2.75,22h2.75v-2.75H47.1Zm-2.75-11v2.75H47.1V94.63Zm0,5.49v2.75H47.1v-2.75Zm0,27.45v2.75H47.1v-2.75Zm8.24-19.22v-2.75H49.84v2.75Zm0,5.49V111.1H49.84v2.75Zm0-11v-2.75H49.84v2.75Zm0,16.47v-2.75H49.84v2.75Zm0,5.49v-2.75H49.84v2.75Zm0-38.43V83.65H49.84v2.75Zm-8.24,30.2v2.75H47.1v-2.75Zm8.24-24.71V89.14H49.84v2.75Zm0,5.49V94.63H49.84v2.75Zm0-16.47V78.16H49.84V80.9Zm-8.24,41.18v2.75H47.1v-2.75Zm2.75,5.49h2.75v-2.75H47.1Zm0,5.49h2.75v-2.75H47.1Zm5.49-2.75v-2.75H49.84v2.75Zm-5.49-8.24h2.75v-2.75H47.1Zm5.49,19.22v-2.75H49.84v2.75Zm0-5.49v-2.75H49.84v2.75Zm-5.49,2.75h2.75V135.8H47.1Zm-2.75-5.49v2.75H47.1v-2.75Zm0,8.24H47.1v-2.75H44.35Zm0-68.63v2.75H47.1V72.67Zm5.49,2.75h2.75V72.67H49.84ZM47.1,78.16h2.75V75.41H47.1Zm-2.75,0V80.9H47.1V78.16Zm2.75,5.49h2.75V80.9H47.1Zm60.39,22h2.75v-2.75h-2.75Zm-2.75,0v2.75h2.75v-2.75Zm0-5.49v2.75h2.75v-2.75Zm2.75,0h2.75V97.37h-2.75Zm0,27.45h2.75v-2.75h-2.75Zm-2.75-32.94v2.75h2.75V94.63Zm2.75,22h2.75v-2.75h-2.75Zm0-5.49h2.75v-2.75h-2.75Zm-2.75,0v2.75h2.75V111.1Zm2.75,11h2.75v-2.75h-2.75Zm0-46.67v2.75h2.75V75.41Zm-2.75-2.75v2.75h2.75V72.67Zm2.75,22h2.75V91.88h-2.75Zm-2.75-16.47V80.9h2.75V78.16ZM113,72.67h-2.75v2.75H113Zm-8.24,11v2.75h2.75V83.65Zm0,5.49v2.75h2.75V89.14Zm2.75,0h2.75V86.39h-2.75Zm0-5.49h2.75V80.9h-2.75ZM113,86.39V83.65h-2.75v2.75Zm-8.24,32.94h2.74v-2.75h-2.74ZM113,80.9V78.16h-2.75V80.9Zm0,11V89.14h-2.75v2.75Zm-5.49,41.18h2.75v-2.75h-2.75Zm-2.75,8.24h2.74v-2.75h-2.74Zm0-5.49h2.74v-2.75h-2.74Zm0-11h2.74v-2.75h-2.74Zm0,5.49h2.74v-2.75h-2.74ZM113,97.37V94.63h-2.75v2.75Zm0,5.49v-2.75h-2.75v2.75Zm0,32.94v-2.75h-2.75v2.75Zm-5.49,2.75h2.75V135.8h-2.75Zm5.49-8.24v-2.75h-2.75v2.75Zm0,11v-2.75h-2.75v2.75Zm0-27.45V111.1h-2.75v2.75Zm0,11v-2.75h-2.75v2.75Zm0-16.47v-2.75h-2.75v2.75Zm0,11v-2.75h-2.75v2.75Z"/></g><g id="Outline" class="cls-8"><path d="M167.88,53.45H115.66a13.63,13.63,0,0,0-2.21-6.19l10.47-10.47A5.51,5.51,0,1,0,120,32.91L109.56,43.38a13.66,13.66,0,0,0-15.12,0L84,32.91a5.51,5.51,0,1,0-3.88,3.88L90.56,47.26a13.63,13.63,0,0,0-2.21,6.19H36.12a11,11,0,0,0-11,11v85.1a11,11,0,0,0,11,11h5.49a5.49,5.49,0,0,0,11,0h98.82a5.49,5.49,0,0,0,11,0h5.49a11,11,0,0,0,11-11V64.43A11,11,0,0,0,167.88,53.45Zm5.49,96.08a5.49,5.49,0,0,1-5.49,5.49H36.12a5.49,5.49,0,0,1-5.49-5.49V64.43a5.49,5.49,0,0,1,5.49-5.49H167.88a5.49,5.49,0,0,1,5.49,5.49Z"/></g><circle cx="102" cy="105" r="28"/><circle class="cls-1" cx="102" cy="105" r="24"/><circle cx="111" cy="105" r="2"/><polygon class="cls-9" points="96.11 98.79 97.89 95.21 111.89 103.21 110.11 106.79 96.11 98.79"/><polygon class="cls-9" points="110.11 103.21 111.89 106.79 97.89 114.79 96.11 111.21 110.11 103.21"/><polygon class="cls-9" points="97 97 97 113 111 105 97 97"/></svg>